<svg width="20" height="20" viewBox="0 0 20 20" fill="none" xmlns="http://www.w3.org/2000/svg">
<path fill-rule="evenodd" clip-rule="evenodd" d="M8.33329 13.3333C8.33329 13.7916 7.95829 14.1666 7.49996 14.1666C7.04163 14.1666 6.66663 13.7916 6.66663 13.3333V9.99996C6.66663 9.54163 7.04163 9.16663 7.49996 9.16663C7.95829 9.16663 8.33329 9.54163 8.33329 9.99996V13.3333ZM13.3333 13.3333C13.3333 13.7916 12.9583 14.1666 12.5 14.1666C12.0416 14.1666 11.6666 13.7916 11.6666 13.3333V9.99996C11.6666 9.54163 12.0416 9.16663 12.5 9.16663C12.9583 9.16663 13.3333 9.54163 13.3333 9.99996V13.3333ZM15 15.8333C15 16.2925 14.6266 16.6666 14.1666 16.6666H5.83329C5.37329 16.6666 4.99996 16.2925 4.99996 15.8333V6.66663H15V15.8333ZM8.33329 3.60663C8.33329 3.47746 8.51163 3.33329 8.74996 3.33329H11.25C11.4883 3.33329 11.6666 3.47746 11.6666 3.60663V4.99996H8.33329V3.60663ZM17.5 4.99996H16.6666H13.3333V3.60663C13.3333 2.53663 12.3991 1.66663 11.25 1.66663H8.74996C7.60079 1.66663 6.66663 2.53663 6.66663 3.60663V4.99996H3.33329H2.49996C2.04163 4.99996 1.66663 5.37496 1.66663 5.83329C1.66663 6.29163 2.04163 6.66663 2.49996 6.66663H3.33329V15.8333C3.33329 17.2116 4.45496 18.3333 5.83329 18.3333H14.1666C15.545 18.3333 16.6666 17.2116 16.6666 15.8333V6.66663H17.5C17.9583 6.66663 18.3333 6.29163 18.3333 5.83329C18.3333 5.37496 17.9583 4.99996 17.5 4.99996Z" fill="#C5CEE0"/>
<mask id="mask0_0_420" style="mask-type:alpha" maskUnits="userSpaceOnUse" x="1" y="1" width="18" height="18">
<path fill-rule="evenodd" clip-rule="evenodd" d="M8.33329 13.3333C8.33329 13.7916 7.95829 14.1666 7.49996 14.1666C7.04163 14.1666 6.66663 13.7916 6.66663 13.3333V9.99996C6.66663 9.54163 7.04163 9.16663 7.49996 9.16663C7.95829 9.16663 8.33329 9.54163 8.33329 9.99996V13.3333ZM13.3333 13.3333C13.3333 13.7916 12.9583 14.1666 12.5 14.1666C12.0416 14.1666 11.6666 13.7916 11.6666 13.3333V9.99996C11.6666 9.54163 12.0416 9.16663 12.5 9.16663C12.9583 9.16663 13.3333 9.54163 13.3333 9.99996V13.3333ZM15 15.8333C15 16.2925 14.6266 16.6666 14.1666 16.6666H5.83329C5.37329 16.6666 4.99996 16.2925 4.99996 15.8333V6.66663H15V15.8333ZM8.33329 3.60663C8.33329 3.47746 8.51163 3.33329 8.74996 3.33329H11.25C11.4883 3.33329 11.6666 3.47746 11.6666 3.60663V4.99996H8.33329V3.60663ZM17.5 4.99996H16.6666H13.3333V3.60663C13.3333 2.53663 12.3991 1.66663 11.25 1.66663H8.74996C7.60079 1.66663 6.66663 2.53663 6.66663 3.60663V4.99996H3.33329H2.49996C2.04163 4.99996 1.66663 5.37496 1.66663 5.83329C1.66663 6.29163 2.04163 6.66663 2.49996 6.66663H3.33329V15.8333C3.33329 17.2116 4.45496 18.3333 5.83329 18.3333H14.1666C15.545 18.3333 16.6666 17.2116 16.6666 15.8333V6.66663H17.5C17.9583 6.66663 18.3333 6.29163 18.3333 5.83329C18.3333 5.37496 17.9583 4.99996 17.5 4.99996Z" fill="white"/>
</mask>
<g mask="url(#mask0_0_420)">
</g>
</svg>
