<svg width="20" height="20" viewBox="0 0 20 20" fill="none" xmlns="http://www.w3.org/2000/svg">
<path fill-rule="evenodd" clip-rule="evenodd" d="M8.33329 13.3334C8.33329 13.7917 7.95829 14.1667 7.49996 14.1667C7.04163 14.1667 6.66663 13.7917 6.66663 13.3334V10C6.66663 9.54169 7.04163 9.16669 7.49996 9.16669C7.95829 9.16669 8.33329 9.54169 8.33329 10V13.3334ZM13.3333 13.3334C13.3333 13.7917 12.9583 14.1667 12.5 14.1667C12.0416 14.1667 11.6666 13.7917 11.6666 13.3334V10C11.6666 9.54169 12.0416 9.16669 12.5 9.16669C12.9583 9.16669 13.3333 9.54169 13.3333 10V13.3334ZM15 15.8334C15 16.2925 14.6266 16.6667 14.1666 16.6667H5.83329C5.37329 16.6667 4.99996 16.2925 4.99996 15.8334V6.66669H15V15.8334ZM8.33329 3.60669C8.33329 3.47752 8.51163 3.33335 8.74996 3.33335H11.25C11.4883 3.33335 11.6666 3.47752 11.6666 3.60669V5.00002H8.33329V3.60669ZM17.5 5.00002H16.6666H13.3333V3.60669C13.3333 2.53669 12.3991 1.66669 11.25 1.66669H8.74996C7.60079 1.66669 6.66663 2.53669 6.66663 3.60669V5.00002H3.33329H2.49996C2.04163 5.00002 1.66663 5.37502 1.66663 5.83335C1.66663 6.29169 2.04163 6.66669 2.49996 6.66669H3.33329V15.8334C3.33329 17.2117 4.45496 18.3334 5.83329 18.3334H14.1666C15.545 18.3334 16.6666 17.2117 16.6666 15.8334V6.66669H17.5C17.9583 6.66669 18.3333 6.29169 18.3333 5.83335C18.3333 5.37502 17.9583 5.00002 17.5 5.00002Z" fill="#C5CEE0"/>
<mask id="mask0_0_544" style="mask-type:alpha" maskUnits="userSpaceOnUse" x="1" y="1" width="18" height="18">
<path fill-rule="evenodd" clip-rule="evenodd" d="M8.33329 13.3334C8.33329 13.7917 7.95829 14.1667 7.49996 14.1667C7.04163 14.1667 6.66663 13.7917 6.66663 13.3334V10C6.66663 9.54169 7.04163 9.16669 7.49996 9.16669C7.95829 9.16669 8.33329 9.54169 8.33329 10V13.3334ZM13.3333 13.3334C13.3333 13.7917 12.9583 14.1667 12.5 14.1667C12.0416 14.1667 11.6666 13.7917 11.6666 13.3334V10C11.6666 9.54169 12.0416 9.16669 12.5 9.16669C12.9583 9.16669 13.3333 9.54169 13.3333 10V13.3334ZM15 15.8334C15 16.2925 14.6266 16.6667 14.1666 16.6667H5.83329C5.37329 16.6667 4.99996 16.2925 4.99996 15.8334V6.66669H15V15.8334ZM8.33329 3.60669C8.33329 3.47752 8.51163 3.33335 8.74996 3.33335H11.25C11.4883 3.33335 11.6666 3.47752 11.6666 3.60669V5.00002H8.33329V3.60669ZM17.5 5.00002H16.6666H13.3333V3.60669C13.3333 2.53669 12.3991 1.66669 11.25 1.66669H8.74996C7.60079 1.66669 6.66663 2.53669 6.66663 3.60669V5.00002H3.33329H2.49996C2.04163 5.00002 1.66663 5.37502 1.66663 5.83335C1.66663 6.29169 2.04163 6.66669 2.49996 6.66669H3.33329V15.8334C3.33329 17.2117 4.45496 18.3334 5.83329 18.3334H14.1666C15.545 18.3334 16.6666 17.2117 16.6666 15.8334V6.66669H17.5C17.9583 6.66669 18.3333 6.29169 18.3333 5.83335C18.3333 5.37502 17.9583 5.00002 17.5 5.00002Z" fill="white"/>
</mask>
<g mask="url(#mask0_0_544)">
</g>
</svg>
