<svg preserveAspectRatio="none" width="100%" height="100%" overflow="visible" style="display: block;" viewBox="0 0 24 24" fill="none" xmlns="http://www.w3.org/2000/svg">
<g id="Frame" clip-path="url(#clip0_0_1135)">
<path id="Vector" d="M21.3333 8.81333V20H2.66667V5.33333H4.66667V4H2.5C2.34416 4.0026 2.19036 4.03588 2.04738 4.09794C1.9044 4.15999 1.77505 4.24961 1.66671 4.36166C1.55837 4.47371 1.47317 4.60601 1.41596 4.751C1.35876 4.89599 1.33069 5.05083 1.33333 5.20667V20.1267C1.33069 20.2825 1.35876 20.4373 1.41596 20.5823C1.47317 20.7273 1.55837 20.8596 1.66671 20.9717C1.77505 21.0837 1.9044 21.1733 2.04738 21.2354C2.19036 21.2975 2.34416 21.3307 2.5 21.3333H21.5C21.6558 21.3307 21.8096 21.2975 21.9526 21.2354C22.0956 21.1733 22.225 21.0837 22.3333 20.9717C22.4416 20.8596 22.5268 20.7273 22.584 20.5823C22.6412 20.4373 22.6693 20.2825 22.6667 20.1267V8.22667C22.2535 8.48669 21.8042 8.68437 21.3333 8.81333Z" fill="var(--fill-0, #1E1E1E)"/>
<path id="Vector_2" d="M5.33333 9.33333H6.66667V10.6667H5.33333V9.33333Z" fill="var(--fill-0, #1E1E1E)"/>
<path id="Vector_3" d="M9.33333 9.33333H10.6667V10.6667H9.33333V9.33333Z" fill="var(--fill-0, #1E1E1E)"/>
<path id="Vector_4" d="M13.3333 9.33333H14.6667V10.6667H13.3333V9.33333Z" fill="var(--fill-0, #1E1E1E)"/>
<path id="Vector_5" d="M17.3333 9.33333H18.6667V10.6667H17.3333V9.33333Z" fill="var(--fill-0, #1E1E1E)"/>
<path id="Vector_6" d="M5.33333 12.6667H6.66667V14H5.33333V12.6667Z" fill="var(--fill-0, #1E1E1E)"/>
<path id="Vector_7" d="M9.33333 12.6667H10.6667V14H9.33333V12.6667Z" fill="var(--fill-0, #1E1E1E)"/>
<path id="Vector_8" d="M13.3333 12.6667H14.6667V14H13.3333V12.6667Z" fill="var(--fill-0, #1E1E1E)"/>
<path id="Vector_9" d="M17.3333 12.6667H18.6667V14H17.3333V12.6667Z" fill="var(--fill-0, #1E1E1E)"/>
<path id="Vector_10" d="M5.33333 16H6.66667V17.3333H5.33333V16Z" fill="var(--fill-0, #1E1E1E)"/>
<path id="Vector_11" d="M9.33333 16H10.6667V17.3333H9.33333V16Z" fill="var(--fill-0, #1E1E1E)"/>
<path id="Vector_12" d="M13.3333 16H14.6667V17.3333H13.3333V16Z" fill="var(--fill-0, #1E1E1E)"/>
<path id="Vector_13" d="M17.3333 16H18.6667V17.3333H17.3333V16Z" fill="var(--fill-0, #1E1E1E)"/>
<path id="Vector_14" d="M6.66667 6.66667C6.84348 6.66667 7.01305 6.59643 7.13807 6.4714C7.2631 6.34638 7.33333 6.17681 7.33333 6V2C7.33333 1.82319 7.2631 1.65362 7.13807 1.5286C7.01305 1.40357 6.84348 1.33333 6.66667 1.33333C6.48986 1.33333 6.32029 1.40357 6.19526 1.5286C6.07024 1.65362 6 1.82319 6 2V6C6 6.17681 6.07024 6.34638 6.19526 6.4714C6.32029 6.59643 6.48986 6.66667 6.66667 6.66667Z" fill="var(--fill-0, #1E1E1E)"/>
<path id="Vector_15" d="M15 4H8.66667V5.33333H15.1867C15.0645 4.89935 15.0017 4.45083 15 4Z" fill="var(--fill-0, #1E1E1E)"/>
<path id="Vector_16" d="M20 7.33333C21.8409 7.33333 23.3333 5.84095 23.3333 4C23.3333 2.15905 21.8409 0.666667 20 0.666667C18.1591 0.666667 16.6667 2.15905 16.6667 4C16.6667 5.84095 18.1591 7.33333 20 7.33333Z" fill="var(--fill-0, #1E1E1E)"/>
<g id="Vector_17">
</g>
</g>
<defs>
<clipPath id="clip0_0_1135">
<rect width="24" height="24" fill="white"/>
</clipPath>
</defs>
</svg>
