<svg width="85" height="85" viewBox="0 0 85 85" fill="none" xmlns="http://www.w3.org/2000/svg">
<path d="M36.55 62.0499L66.5124 32.0875L60.5624 26.1375L36.55 50.15L24.4375 38.0375L18.4875 43.9875L36.55 62.0499ZM42.5 84.9999C36.6208 84.9999 31.0958 83.8843 25.925 81.653C20.7541 79.4218 16.2562 76.3937 12.4312 72.5687C8.60624 68.7437 5.57812 64.2458 3.34687 59.075C1.11562 53.9041 0 48.3791 0 42.5C0 36.6208 1.11562 31.0958 3.34687 25.925C5.57812 20.7541 8.60624 16.2562 12.4312 12.4312C16.2562 8.60624 20.7541 5.57812 25.925 3.34687C31.0958 1.11562 36.6208 0 42.5 0C48.3791 0 53.9041 1.11562 59.075 3.34687C64.2458 5.57812 68.7437 8.60624 72.5687 12.4312C76.3937 16.2562 79.4218 20.7541 81.653 25.925C83.8843 31.0958 84.9999 36.6208 84.9999 42.5C84.9999 48.3791 83.8843 53.9041 81.653 59.075C79.4218 64.2458 76.3937 68.7437 72.5687 72.5687C68.7437 76.3937 64.2458 79.4218 59.075 81.653C53.9041 83.8843 48.3791 84.9999 42.5 84.9999ZM42.5 76.4999C51.9916 76.4999 60.0312 73.2062 66.6187 66.6187C73.2062 60.0312 76.4999 51.9916 76.4999 42.5C76.4999 33.0083 73.2062 24.9687 66.6187 18.3812C60.0312 11.7937 51.9916 8.49999 42.5 8.49999C33.0083 8.49999 24.9687 11.7937 18.3812 18.3812C11.7937 24.9687 8.49999 33.0083 8.49999 42.5C8.49999 51.9916 11.7937 60.0312 18.3812 66.6187C24.9687 73.2062 33.0083 76.4999 42.5 76.4999Z" fill="#43D649"/>
</svg>
