<svg width="34" height="34" viewBox="0 0 34 34" fill="none" xmlns="http://www.w3.org/2000/svg">
<path d="M2.04029 0.500434H31.9603C32.8158 0.500556 33.4991 1.18497 33.4991 2.01677V31.5926C33.4991 32.4244 32.8158 33.1088 31.9603 33.1089H2.04029C1.18461 33.1089 0.500495 32.4245 0.500495 31.5926V2.01677C0.500495 1.1849 1.18461 0.500434 2.04029 0.500434Z" fill="white" fill-opacity="0.01" stroke="#DDDFE1"/>
<g clip-path="url(#clip0_0_726)">
<path d="M14.431 6.54939C14.082 6.54939 13.7975 6.83062 13.7975 7.17563V9.30946C11.7562 9.5385 10.3484 10.0024 10.3484 10.5387V11.5593C10.3484 11.768 10.5742 11.9594 10.9584 12.1391C11.9644 12.6059 14.1407 12.9277 16.6601 12.9277C19.1824 12.9277 21.3528 12.6059 22.3617 12.1391C22.743 11.9594 22.9718 11.768 22.9718 11.5593V10.5387C22.9718 9.98499 21.4496 9.50371 19.288 9.28627V7.17563C19.288 6.83062 19.0035 6.54939 18.6545 6.54939H14.431ZM15.0645 7.68589H18.0444C18.1089 7.68589 18.1383 7.98451 18.1383 8.35851V9.19349C17.6602 9.1703 17.1763 9.14711 16.6601 9.14711C16.1263 9.14711 15.6042 9.1674 15.1115 9.19349L14.9472 9.21669V8.35851C14.9472 7.98451 15.0029 7.68589 15.0645 7.68589ZM11.24 13.6467C11.1725 13.7163 11.1373 13.7801 11.1227 13.8555V13.9019C11.1227 13.9134 11.1197 13.9395 11.1227 13.9482L11.545 22.6691C11.5831 23.3534 12.3838 24.3855 16.6601 24.3855C20.9363 24.3855 21.737 23.3534 21.7751 22.6691L22.1975 13.9482C22.1975 13.9366 22.1975 13.9134 22.1975 13.9019V13.8555C22.1857 13.7801 22.1476 13.7163 22.0801 13.6467C21.5287 14.2005 19.3085 14.273 16.6601 14.273C14.0116 14.273 11.7943 14.2005 11.24 13.6467Z" fill="#4A85F6"/>
</g>
<defs>
<clipPath id="clip0_0_726">
<rect width="18" height="17.7931" fill="white" transform="translate(7.65004 6.57249) scale(1.00111)"/>
</clipPath>
</defs>
</svg>
