<svg width="34" height="34" viewBox="0 0 34 34" fill="none" xmlns="http://www.w3.org/2000/svg">
<path d="M2.04029 0.500556H31.9603C32.8158 0.500678 33.4991 1.1851 33.4991 2.01689V31.5927C33.4991 32.4245 32.8158 33.1089 31.9603 33.1091H2.04029C1.18461 33.1091 0.500495 32.4246 0.500495 31.5927V2.01689C0.500495 1.18502 1.18461 0.500556 2.04029 0.500556Z" fill="white" fill-opacity="0.01" stroke="#DDDFE1"/>
<g clip-path="url(#clip0_0_933)">
<path d="M14.431 6.54976C14.082 6.54976 13.7975 6.83098 13.7975 7.17599V9.30983C11.7562 9.53887 10.3484 10.0027 10.3484 10.5391V11.5596C10.3484 11.7684 10.5742 11.9597 10.9584 12.1395C11.9644 12.6063 14.1407 12.9281 16.6601 12.9281C19.1824 12.9281 21.3528 12.6063 22.3617 12.1395C22.743 11.9597 22.9718 11.7684 22.9718 11.5596V10.5391C22.9718 9.98535 21.4496 9.50408 19.288 9.28664V7.17599C19.288 6.83098 19.0035 6.54976 18.6545 6.54976H14.431ZM15.0645 7.68626H18.0444C18.1089 7.68626 18.1383 7.98488 18.1383 8.35888V9.19386C17.6602 9.17067 17.1763 9.14747 16.6601 9.14747C16.1263 9.14747 15.6042 9.16777 15.1115 9.19386L14.9472 9.21705V8.35888C14.9472 7.98488 15.0029 7.68626 15.0645 7.68626ZM11.24 13.6471C11.1725 13.7167 11.1373 13.7805 11.1227 13.8558V13.9022C11.1227 13.9138 11.1197 13.9399 11.1227 13.9486L11.545 22.6695C11.5831 23.3537 12.3838 24.3859 16.6601 24.3859C20.9363 24.3859 21.737 23.3537 21.7751 22.6695L22.1975 13.9486C22.1975 13.937 22.1975 13.9138 22.1975 13.9022V13.8558C22.1857 13.7805 22.1476 13.7167 22.0801 13.6471C21.5287 14.2008 19.3085 14.2733 16.6601 14.2733C14.0116 14.2733 11.7943 14.2008 11.24 13.6471Z" fill="#4A85F6"/>
</g>
<defs>
<clipPath id="clip0_0_933">
<rect width="18" height="17.7931" fill="white" transform="translate(7.65004 6.57273) scale(1.00111)"/>
</clipPath>
</defs>
</svg>
