<svg width="34" height="34" viewBox="0 0 34 34" fill="none" xmlns="http://www.w3.org/2000/svg">
<path d="M2.04029 0.500556H31.9603C32.8158 0.500678 33.4991 1.1851 33.4991 2.01689V31.5927C33.4991 32.4245 32.8158 33.1089 31.9603 33.1091H2.04029C1.18461 33.1091 0.500495 32.4246 0.500495 31.5927V2.01689C0.500495 1.18502 1.18461 0.500556 2.04029 0.500556Z" fill="white" fill-opacity="0.01" stroke="#DDDFE1"/>
<path d="M20.6619 7.31746L11.399 16.4739L9.41293 22.643L15.6537 20.6797L24.9166 11.5233C24.9166 11.5233 24.8457 10.0505 23.4984 8.7194C22.1511 7.38755 20.6619 7.31746 20.6619 7.31746ZM20.9278 8.45653C21.688 8.59953 22.2932 8.91785 22.7602 9.39162C23.2272 9.86539 23.5558 10.4946 23.7643 11.2604L22.479 12.5309L19.6426 9.72704L20.6619 8.7194L20.9278 8.45653ZM12.1815 17.1762C12.1899 17.1783 13.0342 17.3893 13.8809 18.2263C14.8028 19.0675 14.9446 19.8391 14.9446 19.8391L14.9751 19.8747L12.4585 20.6756L11.3976 19.6269L12.1815 17.1762Z" fill="#4A85F6"/>
</svg>
