<svg width="34" height="34" viewBox="0 0 34 34" fill="none" xmlns="http://www.w3.org/2000/svg">
<path d="M2.04029 0.500434H31.9603C32.8158 0.500556 33.4991 1.18497 33.4991 2.01677V31.5926C33.4991 32.4244 32.8158 33.1088 31.9603 33.1089H2.04029C1.18461 33.1089 0.500495 32.4245 0.500495 31.5926V2.01677C0.500495 1.1849 1.18461 0.500434 2.04029 0.500434Z" fill="white" fill-opacity="0.01" stroke="#DDDFE1"/>
<path d="M20.6619 7.31721L11.399 16.4736L9.41289 22.6427L15.6537 20.6795L24.9166 11.523C24.9166 11.523 24.8457 10.0503 23.4984 8.71915C22.151 7.38731 20.6619 7.31721 20.6619 7.31721ZM20.9278 8.45629C21.688 8.59929 22.2932 8.91761 22.7602 9.39137C23.2271 9.86514 23.5558 10.4944 23.7643 11.2602L22.479 12.5307L19.6425 9.7268L20.6619 8.71915L20.9278 8.45629ZM12.1815 17.176C12.1899 17.1781 13.0342 17.3891 13.8809 18.2261C14.8028 19.0672 14.9446 19.8388 14.9446 19.8388L14.9751 19.8744L12.4585 20.6754L11.3976 19.6266L12.1815 17.176Z" fill="#4A85F6"/>
</svg>
