<svg width="20" height="20" viewBox="0 0 20 20" fill="none" xmlns="http://www.w3.org/2000/svg">
<path d="M0.580049 17.01L0.560049 17.03C0.290049 16.44 0.120049 15.77 0.0500488 15.03C0.120049 15.76 0.310049 16.42 0.580049 17.01Z" fill="#757575"/>
<path d="M7 8.38C8.31443 8.38 9.38 7.31443 9.38 6C9.38 4.68556 8.31443 3.62 7 3.62C5.68556 3.62 4.62 4.68556 4.62 6C4.62 7.31443 5.68556 8.38 7 8.38Z" fill="#757575"/>
<path d="M14.19 0H5.81C2.17 0 0 2.17 0 5.81V14.19C0 15.28 0.19 16.23 0.56 17.03C1.42 18.93 3.26 20 5.81 20H14.19C17.83 20 20 17.83 20 14.19V11.9V5.81C20 2.17 17.83 0 14.19 0ZM18.37 10.5C17.59 9.83 16.33 9.83 15.55 10.5L11.39 14.07C10.61 14.74 9.35 14.74 8.57 14.07L8.23 13.79C7.52 13.17 6.39 13.11 5.59 13.65L1.85 16.16C1.63 15.6 1.5 14.95 1.5 14.19V5.81C1.5 2.99 2.99 1.5 5.81 1.5H14.19C17.01 1.5 18.5 2.99 18.5 5.81V10.61L18.37 10.5Z" fill="#757575"/>
</svg>
