<svg width="50" height="50" viewBox="0 0 50 50" fill="none" xmlns="http://www.w3.org/2000/svg">
<path d="M3.00003 0.5H47C48.3807 0.500037 49.5 1.61927 49.5 3V47C49.5 48.3807 48.3807 49.5 47 49.5H3.00003C1.61933 49.5 0.500068 48.3807 0.500031 47V3C0.500041 1.61924 1.61932 0.5 3.00003 0.5Z" fill="white" fill-opacity="0.01" stroke="#DDDFE1"/>
<g clip-path="url(#clip0_0_872)">
<path d="M15.5938 15C15.2655 15 15 15.2655 15 15.5938V20.8918C15 21.1316 15.1428 21.3486 15.3654 21.4399C15.5852 21.5312 15.8364 21.4713 16.0048 21.3029L17.7633 19.5445L20.3666 22.1478C20.5293 22.3105 20.7977 22.3105 20.9604 22.1478L22.1479 20.9603C22.3106 20.8005 22.3077 20.5264 22.1479 20.3666L19.5445 17.7632L21.3029 16.0048C21.4142 15.8906 21.4856 15.7479 21.4856 15.5938C21.4856 15.5167 21.4713 15.4396 21.4399 15.3654C21.3486 15.1456 21.1316 15 20.8919 15H15.5938ZM28.1082 15C27.8684 15 27.6515 15.1427 27.5601 15.3654C27.4688 15.5852 27.5287 15.8364 27.6971 16.0048L29.4556 17.7632L26.8522 20.3666C26.6895 20.5293 26.6895 20.7976 26.8522 20.9603L28.0397 22.1478C28.2024 22.3105 28.4707 22.3105 28.6334 22.1478L31.2368 19.5445L32.9952 21.3029C33.1094 21.4142 33.2521 21.4856 33.4063 21.4856C33.4834 21.4856 33.5604 21.4713 33.6346 21.4399C33.8544 21.3486 34 21.1316 34 20.8918V15.5938C34 15.2655 33.7346 15 33.4063 15H28.1082ZM20.6635 26.738C20.5579 26.738 20.4465 26.7722 20.3666 26.8522L17.7633 29.4555L16.0048 27.6971C15.8907 27.5858 15.7479 27.5144 15.5938 27.5144C15.5167 27.5144 15.4396 27.5287 15.3654 27.5601C15.1456 27.6514 15 27.8684 15 28.1082V33.4062C15 33.7345 15.2684 34 15.5938 34H20.8919C21.1316 34 21.3486 33.8573 21.4399 33.6346C21.5313 33.4148 21.4713 33.1636 21.3029 32.9952L19.5445 31.2368L22.125 28.6334C22.2877 28.4707 22.2877 28.2024 22.125 28.0397L20.9604 26.875C20.8804 26.7951 20.7691 26.738 20.6635 26.738ZM28.3366 26.738C28.231 26.738 28.1225 26.7722 28.0397 26.8522L26.875 28.0397C26.7123 28.2024 26.6895 28.4707 26.8522 28.6334L29.4556 31.2368L27.6971 32.9952C27.5858 33.1094 27.5145 33.2521 27.5145 33.4062C27.5145 33.4833 27.5287 33.5604 27.5601 33.6346C27.6515 33.8544 27.8684 34 28.1082 34H33.4063C33.7346 34 34 33.7345 34 33.4062V28.1082C34 27.8684 33.8573 27.6514 33.6346 27.5601C33.4148 27.4688 33.1636 27.5287 32.9952 27.6971L31.2368 29.4555L28.6334 26.8522C28.5535 26.7722 28.4422 26.738 28.3366 26.738Z" fill="#4A85F6"/>
</g>
<defs>
<clipPath id="clip0_0_872">
<rect width="19" height="19" fill="white" transform="translate(15 15)"/>
</clipPath>
</defs>
</svg>
