<svg width="50" height="50" viewBox="0 0 50 50" fill="none" xmlns="http://www.w3.org/2000/svg">
<path d="M3.00009 0.5H47.0001C48.3808 0.500008 49.5001 1.61925 49.5001 3V47C49.5 48.3807 48.3808 49.5 47.0001 49.5H3.00009C1.61937 49.5 0.500128 48.3807 0.500091 47V3C0.500102 1.61926 1.61935 0.5 3.00009 0.5Z" fill="white" fill-opacity="0.01" stroke="#DDDFE1"/>
<g clip-path="url(#clip0_0_868)">
<path d="M20.7897 14C18.4329 14 16.6503 14.7951 15.5397 16.1202C14.4292 17.4453 14.0001 19.1932 14.0001 21.0168C14.0001 25.2698 16.1991 29.933 16.928 31.3654L15.6912 33.8642C15.5303 34.1071 15.6092 34.4289 15.6912 34.6719C15.8521 34.8328 16.1013 35 16.4232 35H34.1924C34.6783 35 35.0001 34.5961 35.0001 34.1923C35.0001 34.0314 35.0095 33.8736 34.8486 33.7127L32.6022 29.2199V20.613C32.6149 20.5278 32.6149 20.4458 32.6022 20.3606V18.8461C32.6054 18.6064 32.5044 18.376 32.3277 18.2151C32.1479 18.0542 31.9081 17.9817 31.6683 18.0132C31.2456 18.0605 30.9301 18.4202 30.9364 18.8461V19.6286H26.9232V18.8461C26.9232 18.3603 26.6013 18.0385 26.1155 18.0385H26.065C25.9546 17.2718 25.6611 16.4515 25.0554 15.7163C24.2287 14.7162 22.8216 14 20.7897 14ZM20.7897 15.6154C22.4714 15.6154 23.3106 16.1107 23.8186 16.726C24.1404 17.1172 24.3297 17.5936 24.4244 18.0637C23.9858 18.0984 23.6924 18.3918 23.6924 18.8461V19.6286H19.6792V18.8461C19.6823 18.6064 19.5814 18.376 19.4047 18.2151C19.2248 18.0542 18.9851 17.9817 18.7453 18.0132C18.3225 18.0605 18.007 18.4202 18.0133 18.8461V20.1839C17.9597 20.3479 17.9597 20.5246 18.0133 20.6887V29.2199L17.8619 29.4976C16.9564 27.4279 15.6155 23.8911 15.6155 21.0168C15.6155 19.4488 15.9878 18.0921 16.7765 17.155C17.5653 16.218 18.7831 15.6154 20.7897 15.6154ZM19.6792 21.2945H23.6924V24.5C23.6924 24.9859 24.0142 25.3077 24.5001 25.3077V26.1154H26.1155V25.3077C26.6013 25.3077 26.9232 24.9859 26.9232 24.5V21.2945H30.9364V28.5384H19.6792V21.2945Z" fill="#4A85F6"/>
</g>
<defs>
<clipPath id="clip0_0_868">
<rect width="21" height="21" fill="white" transform="translate(14.0001 14)"/>
</clipPath>
</defs>
</svg>
