<svg width="50" height="50" viewBox="0 0 50 50" fill="none" xmlns="http://www.w3.org/2000/svg">
<path d="M3 0.5H47C48.3807 0.500066 49.5 1.61931 49.5 3V47C49.5 48.3807 48.3807 49.4999 47 49.5H3C1.61929 49.5 0.500037 48.3807 0.5 47V3C0.500011 1.61927 1.61927 0.500011 3 0.5Z" fill="white" fill-opacity="0.01" stroke="#DDDFE1"/>
<path d="M16.88 15C16.4834 15 16.16 15.3283 16.16 15.7308V17.1923H16.52C17.5128 17.1923 18.32 18.0116 18.32 19.0192C18.32 20.0269 17.5128 20.8462 16.52 20.8462H16.16V23.0385H16.52C17.5128 23.0385 18.32 23.8577 18.32 24.8654C18.32 25.873 17.5128 26.6923 16.52 26.6923H16.16V28.8846H16.52C17.5128 28.8846 18.32 29.7039 18.32 30.7115C18.32 31.7192 17.5128 32.5385 16.52 32.5385H16.16V33.2692C16.16 33.6717 16.4834 34 16.88 34H31.28C31.6766 34 32 33.6717 32 33.2692V15.7308C32 15.3283 31.6766 15 31.28 15H16.88ZM15.08 17.9231C14.4838 17.9231 14 18.4141 14 19.0192C14 19.6244 14.4838 20.1154 15.08 20.1154H16.52C17.1163 20.1154 17.6 19.6244 17.6 19.0192C17.6 18.4141 17.1163 17.9231 16.52 17.9231H15.08ZM21.2 17.9231H28.4C28.7966 17.9231 29.12 18.2514 29.12 18.6538V23.7692C29.12 24.1717 28.7966 24.5 28.4 24.5H21.2C20.8034 24.5 20.48 24.1717 20.48 23.7692V18.6538C20.48 18.2514 20.8034 17.9231 21.2 17.9231ZM22.505 19.3846C22.1084 19.4217 21.8159 19.7814 21.8525 20.1839C21.8891 20.5864 22.2434 20.8833 22.64 20.8462H26.96C27.2188 20.849 27.4606 20.712 27.5928 20.4836C27.7222 20.2553 27.7222 19.9755 27.5928 19.7471C27.4606 19.5188 27.2188 19.3818 26.96 19.3846H22.64C22.6175 19.3846 22.595 19.3846 22.5725 19.3846C22.55 19.3846 22.5275 19.3846 22.505 19.3846ZM22.505 21.5769C22.1084 21.614 21.8159 21.9737 21.8525 22.3762C21.8891 22.7787 22.2434 23.0756 22.64 23.0385H26.96C27.2188 23.0413 27.4606 22.9043 27.5928 22.6759C27.7222 22.4476 27.7222 22.1678 27.5928 21.9395C27.4606 21.7111 27.2188 21.5741 26.96 21.5769H22.64C22.6175 21.5769 22.595 21.5769 22.5725 21.5769C22.55 21.5769 22.5275 21.5769 22.505 21.5769ZM15.08 23.7692C14.4838 23.7692 14 24.2602 14 24.8654C14 25.4706 14.4838 25.9615 15.08 25.9615H16.52C17.1163 25.9615 17.6 25.4706 17.6 24.8654C17.6 24.2602 17.1163 23.7692 16.52 23.7692H15.08ZM15.08 29.6154C14.4838 29.6154 14 30.1064 14 30.7115C14 31.3167 14.4838 31.8077 15.08 31.8077H16.52C17.1163 31.8077 17.6 31.3167 17.6 30.7115C17.6 30.1064 17.1163 29.6154 16.52 29.6154H15.08Z" fill="#4A85F6"/>
</svg>
