<svg width="50" height="50" viewBox="0 0 50 50" fill="none" xmlns="http://www.w3.org/2000/svg">
<path d="M3.00011 0.499999H47C48.3807 0.500007 49.5 1.61924 49.5 2.99999V46.9999C49.5 48.3806 48.3807 49.4999 47 49.4999H3.00011C1.6194 49.4999 0.500158 48.3806 0.500121 46.9999V2.99999C0.500132 1.61926 1.61938 0.499999 3.00011 0.499999Z" fill="white" fill-opacity="0.01" stroke="#DDDFE1"/>
<g clip-path="url(#clip0_0_761)">
<path d="M20.7897 14C18.4329 14 16.6503 14.795 15.5397 16.1202C14.4292 17.4453 14.0001 19.1932 14.0001 21.0168C14.0001 25.2698 16.1992 29.9329 16.928 31.3653L15.6912 33.8641C15.5303 34.107 15.6092 34.4289 15.6912 34.6718C15.8521 34.8327 16.1013 34.9999 16.4232 34.9999H34.1923C34.6782 34.9999 35 34.5961 35 34.1922C35 34.0313 35.0095 33.8736 34.8486 33.7127L32.6022 29.2199V20.6129C32.6148 20.5277 32.6148 20.4457 32.6022 20.3605V18.8461C32.6054 18.6063 32.5044 18.376 32.3277 18.2151C32.1479 18.0542 31.9081 17.9816 31.6683 18.0132C31.2455 18.0605 30.93 18.4202 30.9363 18.8461V19.6286H26.9231V18.8461C26.9231 18.3602 26.6013 18.0384 26.1154 18.0384H26.065C25.9545 17.2717 25.6611 16.4514 25.0553 15.7163C24.2287 14.7162 22.8216 14 20.7897 14ZM20.7897 15.6153C22.4714 15.6153 23.3106 16.1107 23.8186 16.7259C24.1404 17.1171 24.3297 17.5936 24.4243 18.0637C23.9858 18.0984 23.6924 18.3918 23.6924 18.8461V19.6286H19.6792V18.8461C19.6823 18.6063 19.5814 18.376 19.4047 18.2151C19.2248 18.0542 18.9851 17.9816 18.7453 18.0132C18.3225 18.0605 18.007 18.4202 18.0133 18.8461V20.1838C17.9597 20.3479 17.9597 20.5246 18.0133 20.6887V29.2199L17.8619 29.4975C16.9564 27.4278 15.6155 23.891 15.6155 21.0168C15.6155 19.4487 15.9878 18.0921 16.7765 17.155C17.5653 16.218 18.7831 15.6153 20.7897 15.6153ZM19.6792 21.2944H23.6924V24.4999C23.6924 24.9858 24.0142 25.3076 24.5001 25.3076V26.1153H26.1154V25.3076C26.6013 25.3076 26.9231 24.9858 26.9231 24.4999V21.2944H30.9363V28.5384H19.6792V21.2944Z" fill="#4A85F6"/>
</g>
<defs>
<clipPath id="clip0_0_761">
<rect width="21" height="21" fill="white" transform="translate(14.0001 14)"/>
</clipPath>
</defs>
</svg>
