<svg width="50" height="50" viewBox="0 0 50 50" fill="none" xmlns="http://www.w3.org/2000/svg">
<path d="M3.00006 0.5H47.0001C48.3807 0.500037 49.5001 1.61927 49.5001 3V47C49.5 48.3807 48.3807 49.5 47.0001 49.5H3.00006C1.61936 49.5 0.500098 48.3807 0.500061 47V3C0.500072 1.61924 1.61935 0.5 3.00006 0.5Z" fill="white" fill-opacity="0.01" stroke="#DDDFE1"/>
<g clip-path="url(#clip0_0_883)">
<path d="M21.7735 14.9766C21.4249 14.9766 21.1407 15.2607 21.1407 15.6094V17.7656C19.1016 17.9971 17.6954 18.4658 17.6954 19.0078V20.0391C17.6954 20.25 17.921 20.4434 18.3047 20.625C19.3096 21.0967 21.4835 21.4219 24.0001 21.4219C26.5196 21.4219 28.6876 21.0967 29.6954 20.625C30.0762 20.4434 30.3047 20.25 30.3047 20.0391V19.0078C30.3047 18.4482 28.7842 17.9619 26.6251 17.7422V15.6094C26.6251 15.2607 26.3409 14.9766 25.9922 14.9766H21.7735ZM22.4063 16.125H25.3829C25.4473 16.125 25.4766 16.4268 25.4766 16.8047V17.6484C24.9991 17.625 24.5157 17.6016 24.0001 17.6016C23.4669 17.6016 22.9454 17.6221 22.4532 17.6484L22.2891 17.6719V16.8047C22.2891 16.4268 22.3448 16.125 22.4063 16.125ZM18.586 22.1484C18.5186 22.2188 18.4835 22.2832 18.4688 22.3594V22.4062C18.4688 22.418 18.4659 22.4443 18.4688 22.4531L18.8907 31.2656C18.9288 31.957 19.7286 33 24.0001 33C28.2715 33 29.0714 31.957 29.1094 31.2656L29.5313 22.4531C29.5313 22.4414 29.5313 22.418 29.5313 22.4062V22.3594C29.5196 22.2832 29.4815 22.2188 29.4141 22.1484C28.8633 22.708 26.6456 22.7812 24.0001 22.7812C21.3546 22.7812 19.1397 22.708 18.586 22.1484Z" fill="#4A85F6"/>
</g>
<defs>
<clipPath id="clip0_0_883">
<rect width="18" height="18" fill="white" transform="translate(15.0001 15)"/>
</clipPath>
</defs>
</svg>
