<svg width="50" height="50" viewBox="0 0 50 50" fill="none" xmlns="http://www.w3.org/2000/svg">
<path d="M3.00009 0.5H47.0001C48.3808 0.500008 49.5001 1.61925 49.5001 3V47C49.5 48.3807 48.3808 49.5 47.0001 49.5H3.00009C1.61937 49.5 0.500128 48.3807 0.500091 47V3C0.500102 1.61926 1.61935 0.5 3.00009 0.5Z" fill="white" fill-opacity="0.01" stroke="#DDDFE1"/>
<g clip-path="url(#clip0_0_879)">
<path d="M20.0926 14C18.8909 14 17.9003 14.9905 17.9003 16.1923V19.8461H17.1924C15.9821 19.8461 15.0001 20.8281 15.0001 22.0384V26.4231C15.0001 27.6334 15.9821 28.6154 17.1924 28.6154H17.9003V30.8077C17.9003 32.0094 18.8909 33 20.0926 33H28.8619C30.0636 33 31.0542 32.0094 31.0542 30.8077V28.6154H31.8078C33.0181 28.6154 34.0001 27.6334 34.0001 26.4231V22.0384C34.0001 20.8281 33.0181 19.8461 31.8078 19.8461H31.0542V16.1923C31.0542 14.9905 30.0636 14 28.8619 14H20.0926ZM20.0926 15.4615H28.8619C29.2729 15.4615 29.5926 15.7812 29.5926 16.1923V19.8461H19.3619V16.1923C19.3619 15.7812 19.6816 15.4615 20.0926 15.4615ZM30.7116 21.3077C31.3168 21.3077 31.8078 21.7987 31.8078 22.4038C31.8078 23.009 31.3168 23.5 30.7116 23.5C30.1064 23.5 29.6155 23.009 29.6155 22.4038C29.6155 21.7987 30.1064 21.3077 30.7116 21.3077ZM19.3619 24.9615H29.5926V30.8077C29.5926 31.2187 29.2729 31.5384 28.8619 31.5384H20.0926C19.6816 31.5384 19.3619 31.2187 19.3619 30.8077V24.9615ZM20.8462 26.4231V27.8846H28.1539V26.4231H20.8462ZM20.8462 28.6154V30.0769H25.9616V28.6154H20.8462Z" fill="#4A85F6"/>
</g>
<defs>
<clipPath id="clip0_0_879">
<rect width="19" height="19" fill="white" transform="translate(15.0001 14)"/>
</clipPath>
</defs>
</svg>
