<svg width="50" height="50" viewBox="0 0 50 50" fill="none" xmlns="http://www.w3.org/2000/svg">
<path d="M3.00011 0.499999H47C48.3807 0.500007 49.5 1.61924 49.5 2.99999V46.9999C49.5 48.3806 48.3807 49.4999 47 49.4999H3.00011C1.6194 49.4999 0.500158 48.3806 0.500121 46.9999V2.99999C0.500132 1.61926 1.61938 0.499999 3.00011 0.499999Z" fill="white" fill-opacity="0.01" stroke="#DDDFE1"/>
<g clip-path="url(#clip0_0_772)">
<path d="M20.0926 14C18.8909 14 17.9003 14.9905 17.9003 16.1923V19.8461H17.1924C15.9821 19.8461 15.0001 20.8281 15.0001 22.0384V26.423C15.0001 27.6333 15.9821 28.6153 17.1924 28.6153H17.9003V30.8076C17.9003 32.0094 18.8909 32.9999 20.0926 32.9999H28.8618C30.0636 32.9999 31.0541 32.0094 31.0541 30.8076V28.6153H31.8077C33.0181 28.6153 34 27.6333 34 26.423V22.0384C34 20.8281 33.0181 19.8461 31.8077 19.8461H31.0541V16.1923C31.0541 14.9905 30.0636 14 28.8618 14H20.0926ZM20.0926 15.4615H28.8618C29.2729 15.4615 29.5926 15.7812 29.5926 16.1923V19.8461H19.3619V16.1923C19.3619 15.7812 19.6816 15.4615 20.0926 15.4615ZM30.7116 21.3076C31.3168 21.3076 31.8077 21.7986 31.8077 22.4038C31.8077 23.009 31.3168 23.4999 30.7116 23.4999C30.1064 23.4999 29.6154 23.009 29.6154 22.4038C29.6154 21.7986 30.1064 21.3076 30.7116 21.3076ZM19.3619 24.9615H29.5926V30.8076C29.5926 31.2187 29.2729 31.5384 28.8618 31.5384H20.0926C19.6816 31.5384 19.3619 31.2187 19.3619 30.8076V24.9615ZM20.8462 26.423V27.8845H28.1539V26.423H20.8462ZM20.8462 28.6153V30.0768H25.9616V28.6153H20.8462Z" fill="#4A85F6"/>
</g>
<defs>
<clipPath id="clip0_0_772">
<rect width="19" height="19" fill="white" transform="translate(15.0001 14)"/>
</clipPath>
</defs>
</svg>
