<svg width="17" height="17" viewBox="0 0 17 17" fill="none" xmlns="http://www.w3.org/2000/svg">
<path d="M7.07784 1.77926C8.06704 1.7782 9.03686 2.05363 9.87784 2.57448C10.7188 3.09532 11.3975 3.84085 11.8373 4.72693C12.277 5.61301 12.4604 6.60436 12.3667 7.58912C12.2729 8.57388 11.9058 9.51284 11.3068 10.3L14.6664 13.6541C14.7935 13.7813 14.8673 13.9521 14.873 14.1318C14.8787 14.3115 14.8157 14.4866 14.697 14.6216C14.5782 14.7565 14.4125 14.8412 14.2336 14.8585C14.0546 14.8757 13.8758 14.8242 13.7335 14.7144L13.6669 14.6557L10.3059 11.303C9.63631 11.8147 8.85452 12.1595 8.02522 12.309C7.19591 12.4586 6.34292 12.4084 5.53683 12.1628C4.73075 11.9172 3.99473 11.4832 3.38969 10.8966C2.78466 10.3101 2.32799 9.58791 2.05749 8.78983C1.78698 7.99175 1.71041 7.14073 1.83412 6.30718C1.95782 5.47364 2.27824 4.68153 2.76887 3.99641C3.25949 3.31129 3.90621 2.75285 4.65551 2.3673C5.40482 1.98175 6.23516 1.78018 7.07784 1.77926ZM7.0793 3.19446C6.04714 3.19553 5.05767 3.60658 4.32857 4.33719C3.59948 5.0678 3.19047 6.05812 3.19154 7.09028C3.19261 8.12245 3.60367 9.11192 4.33428 9.84102C5.06489 10.5701 6.0552 10.9791 7.08737 10.978C8.11954 10.977 9.10901 10.5659 9.8381 9.83531C10.5672 9.1047 10.9762 8.11438 10.9751 7.08222C10.9741 6.05005 10.563 5.06058 9.8324 4.33148C9.10179 3.60239 8.11147 3.19339 7.0793 3.19446Z" fill="#404040"/>
</svg>
