<svg width="17" height="17" viewBox="0 0 17 17" fill="none" xmlns="http://www.w3.org/2000/svg">
<path d="M7.07787 1.77926C8.06708 1.7782 9.03689 2.05363 9.87787 2.57448C10.7189 3.09532 11.3975 3.84085 11.8373 4.72693C12.2771 5.61301 12.4604 6.60436 12.3667 7.58912C12.273 8.57388 11.9059 9.51284 11.3068 10.3L14.6664 13.6541C14.7935 13.7813 14.8673 13.9521 14.873 14.1318C14.8787 14.3115 14.8158 14.4866 14.697 14.6216C14.5782 14.7565 14.4125 14.8412 14.2336 14.8585C14.0546 14.8757 13.8758 14.8242 13.7335 14.7144L13.6669 14.6557L10.3059 11.303C9.63634 11.8147 8.85456 12.1595 8.02525 12.309C7.19594 12.4586 6.34296 12.4084 5.53687 12.1628C4.73078 11.9172 3.99476 11.4832 3.38973 10.8966C2.78469 10.3101 2.32802 9.58791 2.05752 8.78983C1.78701 7.99175 1.71045 7.14073 1.83415 6.30718C1.95786 5.47364 2.27828 4.68153 2.7689 3.99641C3.25952 3.31129 3.90624 2.75285 4.65555 2.3673C5.40485 1.98175 6.23519 1.78018 7.07787 1.77926ZM7.07934 3.19446C6.04717 3.19553 5.0577 3.60658 4.3286 4.33719C3.59951 5.0678 3.19051 6.05812 3.19158 7.09028C3.19265 8.12245 3.6037 9.11192 4.33431 9.84102C5.06492 10.5701 6.05524 10.9791 7.0874 10.978C8.11957 10.977 9.10904 10.5659 9.83814 9.83531C10.5672 9.1047 10.9762 8.11438 10.9752 7.08222C10.9741 6.05005 10.563 5.06058 9.83243 4.33148C9.10182 3.60239 8.1115 3.19339 7.07934 3.19446Z" fill="#404040"/>
</svg>
